<?xml version="1.0" encoding="utf-8"?>
<!-- Generator: Adobe Illustrator 26.0.1, SVG Export Plug-In . SVG Version: 6.00 Build 0)  -->
<svg version="1.1" id="Layer_1" xmlns="http://www.w3.org/2000/svg" xmlns:xlink="http://www.w3.org/1999/xlink" x="0px" y="0px"
	 viewBox="0 0 1049.8 1266.6" style="enable-background:new 0 0 1049.8 1266.6;" xml:space="preserve">
<style type="text/css">
	.st0{display:none;}
	.st1{display:inline;fill:#0F0F0F;}
	.st2{fill:none;stroke:#FFFFFF;stroke-width:67.2367;stroke-linecap:round;stroke-linejoin:round;stroke-miterlimit:10;}
	.st3{opacity:0.2;}
	.st4{fill:none;stroke:#FFFFFF;stroke-width:68.5582;stroke-linecap:round;stroke-linejoin:round;}
	.st5{opacity:0.25;}
	.st6{fill:none;stroke:#FFFFFF;stroke-width:58.2745;stroke-linecap:round;stroke-linejoin:round;}
	.st7{opacity:0.3;}
	.st8{fill:none;stroke:#FFFFFF;stroke-width:34.2791;stroke-linecap:round;stroke-linejoin:round;}
	.st9{fill:none;stroke:#FFFFFF;stroke-width:47.9909;stroke-linecap:round;stroke-linejoin:round;}
	.st10{fill:none;stroke:#FFFFFF;stroke-width:37.7069;stroke-linecap:round;stroke-linejoin:round;}
	.st11{fill:none;stroke:#FFFFFF;stroke-width:27.4233;stroke-linecap:round;stroke-linejoin:round;}
	.st12{fill:none;stroke:#FFFFFF;stroke-width:17.1396;stroke-linecap:round;stroke-linejoin:round;}
	.st13{fill:none;stroke:#FFFFFF;stroke-width:10;stroke-linecap:round;stroke-linejoin:round;}
	.st14{display:inline;opacity:0.85;}
	.st15{display:inline;}
	.st16{fill:none;stroke:#FFFFFF;stroke-width:67.0816;stroke-linecap:round;stroke-linejoin:round;stroke-miterlimit:10;}
	.st17{fill:none;stroke:#FFFFFF;stroke-width:68.4011;stroke-linecap:round;stroke-linejoin:round;}
	.st18{fill:none;stroke:#FFFFFF;stroke-width:58.1408;stroke-linecap:round;stroke-linejoin:round;}
	.st19{fill:none;stroke:#FFFFFF;stroke-width:34.2005;stroke-linecap:round;stroke-linejoin:round;}
	.st20{fill:none;stroke:#FFFFFF;stroke-width:47.8809;stroke-linecap:round;stroke-linejoin:round;}
	.st21{fill:none;stroke:#FFFFFF;stroke-width:37.6206;stroke-linecap:round;stroke-linejoin:round;}
	.st22{fill:none;stroke:#FFFFFF;stroke-width:27.3605;stroke-linecap:round;stroke-linejoin:round;}
	.st23{fill:none;stroke:#FFFFFF;stroke-width:17.1003;stroke-linecap:round;stroke-linejoin:round;}
	.st24{fill:none;stroke:#FFFFFF;stroke-width:54.2991;stroke-linecap:round;stroke-linejoin:round;stroke-miterlimit:10;}
	.st25{fill:none;stroke:#FFFFFF;stroke-width:54.9834;stroke-linecap:round;stroke-linejoin:round;}
	.st26{fill:none;stroke:#FFFFFF;stroke-width:46.7357;stroke-linecap:round;stroke-linejoin:round;}
	.st27{fill:none;stroke:#FFFFFF;stroke-width:27.4917;stroke-linecap:round;stroke-linejoin:round;}
	.st28{fill:none;stroke:#FFFFFF;stroke-width:38.4883;stroke-linecap:round;stroke-linejoin:round;}
	.st29{fill:none;}
	.st30{fill:none;stroke:#FFFFFF;stroke-width:21.9933;stroke-linecap:round;stroke-linejoin:round;}
	.st31{fill:none;stroke:#FFFFFF;stroke-width:13.7459;stroke-linecap:round;stroke-linejoin:round;}
</style>
<g id="Layer_4" class="st0">
	<rect y="0" class="st1" width="1049.8" height="1266.6"/>
</g>
<g id="rock">
	<g>
	</g>
	<g>
		<g>
			<g>
				<g>
					<path class="st2" d="M188,638.5L188,638.5c-57.7,0-104.5-46.8-104.5-104.5V397.2c0-57.7,46.8-104.5,104.5-104.5l0,0
						c57.7,0,104.5,46.8,104.5,104.5V534C292.5,591.7,245.7,638.5,188,638.5z M978.3,656.6c0-105.5-85.5-191-191-191H329.9
						c-20.6,0-37.4,16.7-37.4,37.4v23.4c0,91.5,74.2,165.7,165.7,165.7h226.9 M515,263.4v202.2 M930.7,530.5V254.8
						c0-52.7-42.7-95.4-95.4-95.4s-95.4,42.7-95.4,95.4v8.6c0-62.1-50.4-112.5-112.5-112.5s-112.5,50.4-112.5,112.5v-1.2
						c0-61.4-49.8-111.3-111.3-111.3c-61.4,0-111.3,49.8-111.3,111.3v135c0-57.7-46.8-104.5-104.5-104.5S83.3,339.5,83.3,397.2V733
						c0,211.4,171.3,382.7,382.7,382.7h52.9c253.6,0,459.2-205.6,459.2-459.2C978.3,608.2,960.3,564.1,930.7,530.5z M740,263.4
						v202.2 M682.6,692.1L682.6,692.1c-101.7,0-184.1,82.4-184.1,184.1v54.5"/>
				</g>
			</g>
		</g>
		<g>
			<g>
				<g>
					<g class="st3">
						<path class="st4" d="M188,638.5L188,638.5c-57.7,0-104.5-46.8-104.5-104.5V397.2c0-57.7,46.8-104.5,104.5-104.5l0,0
							c57.7,0,104.5,46.8,104.5,104.5V534C292.5,591.7,245.7,638.5,188,638.5z M978.3,656.6c0-105.5-85.5-191-191-191H329.9
							c-20.6,0-37.4,16.7-37.4,37.4v23.4c0,91.5,74.2,165.7,165.7,165.7h226.9 M515,263.4v202.2 M930.7,530.5V254.8
							c0-52.7-42.7-95.4-95.4-95.4s-95.4,42.7-95.4,95.4v8.6c0-62.1-50.4-112.5-112.5-112.5s-112.5,50.4-112.5,112.5v-1.2
							c0-61.4-49.8-111.3-111.3-111.3c-61.4,0-111.3,49.8-111.3,111.3v135c0-57.7-46.8-104.5-104.5-104.5S83.3,339.5,83.3,397.2V733
							c0,211.4,171.3,382.7,382.7,382.7h52.9c253.6,0,459.2-205.6,459.2-459.2C978.3,608.2,960.3,564.1,930.7,530.5z M740,263.4
							v202.2 M682.6,692.1L682.6,692.1c-101.7,0-184.1,82.4-184.1,184.1v54.5"/>
					</g>
					<g class="st5">
						<path class="st6" d="M188,638.5L188,638.5c-57.7,0-104.5-46.8-104.5-104.5V397.2c0-57.7,46.8-104.5,104.5-104.5l0,0
							c57.7,0,104.5,46.8,104.5,104.5V534C292.5,591.7,245.7,638.5,188,638.5z M978.3,656.6c0-105.5-85.5-191-191-191H329.9
							c-20.6,0-37.4,16.7-37.4,37.4v23.4c0,91.5,74.2,165.7,165.7,165.7h226.9 M515,263.4v202.2 M930.7,530.5V254.8
							c0-52.7-42.7-95.4-95.4-95.4s-95.4,42.7-95.4,95.4v8.6c0-62.1-50.4-112.5-112.5-112.5s-112.5,50.4-112.5,112.5v-1.2
							c0-61.4-49.8-111.3-111.3-111.3c-61.4,0-111.3,49.8-111.3,111.3v135c0-57.7-46.8-104.5-104.5-104.5S83.3,339.5,83.3,397.2V733
							c0,211.4,171.3,382.7,382.7,382.7h52.9c253.6,0,459.2-205.6,459.2-459.2C978.3,608.2,960.3,564.1,930.7,530.5z M740,263.4
							v202.2 M682.6,692.1L682.6,692.1c-101.7,0-184.1,82.4-184.1,184.1v54.5"/>
					</g>
					<g class="st7">
						<path class="st8" d="M188,638.5L188,638.5c-57.7,0-104.5-46.8-104.5-104.5V397.2c0-57.7,46.8-104.5,104.5-104.5l0,0
							c57.7,0,104.5,46.8,104.5,104.5V534C292.5,591.7,245.7,638.5,188,638.5z M978.3,656.6c0-105.5-85.5-191-191-191H329.9
							c-20.6,0-37.4,16.7-37.4,37.4v23.4c0,91.5,74.2,165.7,165.7,165.7h226.9 M515,263.4v202.2 M930.7,530.5V254.8
							c0-52.7-42.7-95.4-95.4-95.4s-95.4,42.7-95.4,95.4v8.6c0-62.1-50.4-112.5-112.5-112.5s-112.5,50.4-112.5,112.5v-1.2
							c0-61.4-49.8-111.3-111.3-111.3c-61.4,0-111.3,49.8-111.3,111.3v135c0-57.7-46.8-104.5-104.5-104.5S83.3,339.5,83.3,397.2V733
							c0,211.4,171.3,382.7,382.7,382.7h52.9c253.6,0,459.2-205.6,459.2-459.2C978.3,608.2,960.3,564.1,930.7,530.5z M740,263.4
							v202.2 M682.6,692.1L682.6,692.1c-101.7,0-184.1,82.4-184.1,184.1v54.5"/>
					</g>
					<path class="st9" d="M188,638.5L188,638.5c-57.7,0-104.5-46.8-104.5-104.5V397.2c0-57.7,46.8-104.5,104.5-104.5l0,0
						c57.7,0,104.5,46.8,104.5,104.5V534C292.5,591.7,245.7,638.5,188,638.5z M978.3,656.6c0-105.5-85.5-191-191-191H329.9
						c-20.6,0-37.4,16.7-37.4,37.4v23.4c0,91.5,74.2,165.7,165.7,165.7h226.9 M515,263.4v202.2 M930.7,530.5V254.8
						c0-52.7-42.7-95.4-95.4-95.4s-95.4,42.7-95.4,95.4v8.6c0-62.1-50.4-112.5-112.5-112.5s-112.5,50.4-112.5,112.5v-1.2
						c0-61.4-49.8-111.3-111.3-111.3c-61.4,0-111.3,49.8-111.3,111.3v135c0-57.7-46.8-104.5-104.5-104.5S83.3,339.5,83.3,397.2V733
						c0,211.4,171.3,382.7,382.7,382.7h52.9c253.6,0,459.2-205.6,459.2-459.2C978.3,608.2,960.3,564.1,930.7,530.5z M740,263.4
						v202.2 M682.6,692.1L682.6,692.1c-101.7,0-184.1,82.4-184.1,184.1v54.5"/>
					<path class="st10" d="M188,638.5L188,638.5c-57.7,0-104.5-46.8-104.5-104.5V397.2c0-57.7,46.8-104.5,104.5-104.5l0,0
						c57.7,0,104.5,46.8,104.5,104.5V534C292.5,591.7,245.7,638.5,188,638.5z M978.3,656.6c0-105.5-85.5-191-191-191H329.9
						c-20.6,0-37.4,16.7-37.4,37.4v23.4c0,91.5,74.2,165.7,165.7,165.7h226.9 M515,263.4v202.2 M930.7,530.5V254.8
						c0-52.7-42.7-95.4-95.4-95.4s-95.4,42.7-95.4,95.4v8.6c0-62.1-50.4-112.5-112.5-112.5s-112.5,50.4-112.5,112.5v-1.2
						c0-61.4-49.8-111.3-111.3-111.3c-61.4,0-111.3,49.8-111.3,111.3v135c0-57.7-46.8-104.5-104.5-104.5S83.3,339.5,83.3,397.2V733
						c0,211.4,171.3,382.7,382.7,382.7h52.9c253.6,0,459.2-205.6,459.2-459.2C978.3,608.2,960.3,564.1,930.7,530.5z M740,263.4
						v202.2 M682.6,692.1L682.6,692.1c-101.7,0-184.1,82.4-184.1,184.1v54.5"/>
					<path class="st11" d="M188,638.5L188,638.5c-57.7,0-104.5-46.8-104.5-104.5V397.2c0-57.7,46.8-104.5,104.5-104.5l0,0
						c57.7,0,104.5,46.8,104.5,104.5V534C292.5,591.7,245.7,638.5,188,638.5z M978.3,656.6c0-105.5-85.5-191-191-191H329.9
						c-20.6,0-37.4,16.7-37.4,37.4v23.4c0,91.5,74.2,165.7,165.7,165.7h226.9 M515,263.4v202.2 M930.7,530.5V254.8
						c0-52.7-42.7-95.4-95.4-95.4s-95.4,42.7-95.4,95.4v8.6c0-62.1-50.4-112.5-112.5-112.5s-112.5,50.4-112.5,112.5v-1.2
						c0-61.4-49.8-111.3-111.3-111.3c-61.4,0-111.3,49.8-111.3,111.3v135c0-57.7-46.8-104.5-104.5-104.5S83.3,339.5,83.3,397.2V733
						c0,211.4,171.3,382.7,382.7,382.7h52.9c253.6,0,459.2-205.6,459.2-459.2C978.3,608.2,960.3,564.1,930.7,530.5z M740,263.4
						v202.2 M682.6,692.1L682.6,692.1c-101.7,0-184.1,82.4-184.1,184.1v54.5"/>
					<path class="st12" d="M188,638.5L188,638.5c-57.7,0-104.5-46.8-104.5-104.5V397.2c0-57.7,46.8-104.5,104.5-104.5l0,0
						c57.7,0,104.5,46.8,104.5,104.5V534C292.5,591.7,245.7,638.5,188,638.5z M978.3,656.6c0-105.5-85.5-191-191-191H329.9
						c-20.6,0-37.4,16.7-37.4,37.4v23.4c0,91.5,74.2,165.7,165.7,165.7h226.9 M515,263.4v202.2 M930.7,530.5V254.8
						c0-52.7-42.7-95.4-95.4-95.4s-95.4,42.7-95.4,95.4v8.6c0-62.1-50.4-112.5-112.5-112.5s-112.5,50.4-112.5,112.5v-1.2
						c0-61.4-49.8-111.3-111.3-111.3c-61.4,0-111.3,49.8-111.3,111.3v135c0-57.7-46.8-104.5-104.5-104.5S83.3,339.5,83.3,397.2V733
						c0,211.4,171.3,382.7,382.7,382.7h52.9c253.6,0,459.2-205.6,459.2-459.2C978.3,608.2,960.3,564.1,930.7,530.5z M740,263.4
						v202.2 M682.6,692.1L682.6,692.1c-101.7,0-184.1,82.4-184.1,184.1v54.5"/>
					<path class="st13" d="M188,638.5L188,638.5c-57.7,0-104.5-46.8-104.5-104.5V397.2c0-57.7,46.8-104.5,104.5-104.5l0,0
						c57.7,0,104.5,46.8,104.5,104.5V534C292.5,591.7,245.7,638.5,188,638.5z M978.3,656.6c0-105.5-85.5-191-191-191H329.9
						c-20.6,0-37.4,16.7-37.4,37.4v23.4c0,91.5,74.2,165.7,165.7,165.7h226.9 M515,263.4v202.2 M930.7,530.5V254.8
						c0-52.7-42.7-95.4-95.4-95.4s-95.4,42.7-95.4,95.4v8.6c0-62.1-50.4-112.5-112.5-112.5s-112.5,50.4-112.5,112.5v-1.2
						c0-61.4-49.8-111.3-111.3-111.3c-61.4,0-111.3,49.8-111.3,111.3v135c0-57.7-46.8-104.5-104.5-104.5S83.3,339.5,83.3,397.2V733
						c0,211.4,171.3,382.7,382.7,382.7h52.9c253.6,0,459.2-205.6,459.2-459.2C978.3,608.2,960.3,564.1,930.7,530.5z M740,263.4
						v202.2 M682.6,692.1L682.6,692.1c-101.7,0-184.1,82.4-184.1,184.1v54.5"/>
				</g>
			</g>
		</g>
	</g>
</g>
<g id="paper" class="st0">
	<g class="st14">
	</g>
	<g class="st15">
		<g>
			<g>
				<g>
					<path class="st16" d="M214.4,290.1v284.3 M380.1,155.9v418.5 M556.9,235.6v338.9 M722.7,767.5h-168
						c-60.3,0-114.3,26.8-150.8,69.1 M787.9,706.1l-65.3,61.3V240c0-45.3-33.7-87.3-82.9-87.3c-45.8,0-82.9,37.1-82.9,82.9v-74.9
						c0-47.6-35.4-93.1-88.4-93.1c-48.8,0-88.4,39.6-88.4,88.4v-5.3c0-44.9-33.9-83.1-82.9-83.1c-45.8,0-82.9,37.1-82.9,82.9v139.7
						c0-40.1-32.5-72.6-72.6-72.6C98,217.6,69,253.3,69,293.2v596.2c0,169.8,136.9,309.8,306.8,309.8c166,0,266.2-57.8,357.5-159
						L980.5,772c16.6-18,16-45.9-1.4-63.2l0,0C926.6,656.5,842,655.3,787.9,706.1z"/>
				</g>
			</g>
		</g>
		<g>
			<g>
				<g>
					<g class="st3">
						<path class="st17" d="M214.4,290.1v284.3 M380.1,155.9v418.5 M556.9,235.6v338.9 M722.7,767.5h-168
							c-60.3,0-114.3,26.8-150.8,69.1 M787.9,706.1l-65.3,61.3V240c0-45.3-33.7-87.3-82.9-87.3c-45.8,0-82.9,37.1-82.9,82.9v-74.9
							c0-47.6-35.4-93.1-88.4-93.1c-48.8,0-88.4,39.6-88.4,88.4v-5.3c0-44.9-33.9-83.1-82.9-83.1c-45.8,0-82.9,37.1-82.9,82.9v139.7
							c0-40.1-32.5-72.6-72.6-72.6C98,217.6,69,253.3,69,293.2v596.2c0,169.8,136.9,309.8,306.8,309.8c166,0,266.2-57.8,357.5-159
							L980.5,772c16.6-18,16-45.9-1.4-63.2l0,0C926.6,656.5,842,655.3,787.9,706.1z"/>
					</g>
					<g class="st5">
						<path class="st18" d="M214.4,290.1v284.3 M380.1,155.9v418.5 M556.9,235.6v338.9 M722.7,767.5h-168
							c-60.3,0-114.3,26.8-150.8,69.1 M787.9,706.1l-65.3,61.3V240c0-45.3-33.7-87.3-82.9-87.3c-45.8,0-82.9,37.1-82.9,82.9v-74.9
							c0-47.6-35.4-93.1-88.4-93.1c-48.8,0-88.4,39.6-88.4,88.4v-5.3c0-44.9-33.9-83.1-82.9-83.1c-45.8,0-82.9,37.1-82.9,82.9v139.7
							c0-40.1-32.5-72.6-72.6-72.6C98,217.6,69,253.3,69,293.2v596.2c0,169.8,136.9,309.8,306.8,309.8c166,0,266.2-57.8,357.5-159
							L980.5,772c16.6-18,16-45.9-1.4-63.2l0,0C926.6,656.5,842,655.3,787.9,706.1z"/>
					</g>
					<g class="st7">
						<path class="st19" d="M214.4,290.1v284.3 M380.1,155.9v418.5 M556.9,235.6v338.9 M722.7,767.5h-168
							c-60.3,0-114.3,26.8-150.8,69.1 M787.9,706.1l-65.3,61.3V240c0-45.3-33.7-87.3-82.9-87.3c-45.8,0-82.9,37.1-82.9,82.9v-74.9
							c0-47.6-35.4-93.1-88.4-93.1c-48.8,0-88.4,39.6-88.4,88.4v-5.3c0-44.9-33.9-83.1-82.9-83.1c-45.8,0-82.9,37.1-82.9,82.9v139.7
							c0-40.1-32.5-72.6-72.6-72.6C98,217.6,69,253.3,69,293.2v596.2c0,169.8,136.9,309.8,306.8,309.8c166,0,266.2-57.8,357.5-159
							L980.5,772c16.6-18,16-45.9-1.4-63.2l0,0C926.6,656.5,842,655.3,787.9,706.1z"/>
					</g>
					<path class="st20" d="M214.4,290.1v284.3 M380.1,155.9v418.5 M556.9,235.6v338.9 M722.7,767.5h-168
						c-60.3,0-114.3,26.8-150.8,69.1 M787.9,706.1l-65.3,61.3V240c0-45.3-33.7-87.3-82.9-87.3c-45.8,0-82.9,37.1-82.9,82.9v-74.9
						c0-47.6-35.4-93.1-88.4-93.1c-48.8,0-88.4,39.6-88.4,88.4v-5.3c0-44.9-33.9-83.1-82.9-83.1c-45.8,0-82.9,37.1-82.9,82.9v139.7
						c0-40.1-32.5-72.6-72.6-72.6C98,217.6,69,253.3,69,293.2v596.2c0,169.8,136.9,309.8,306.8,309.8c166,0,266.2-57.8,357.5-159
						L980.5,772c16.6-18,16-45.9-1.4-63.2l0,0C926.6,656.5,842,655.3,787.9,706.1z"/>
					<path class="st21" d="M214.4,290.1v284.3 M380.1,155.9v418.5 M556.9,235.6v338.9 M722.7,767.5h-168
						c-60.3,0-114.3,26.8-150.8,69.1 M787.9,706.1l-65.3,61.3V240c0-45.3-33.7-87.3-82.9-87.3c-45.8,0-82.9,37.1-82.9,82.9v-74.9
						c0-47.6-35.4-93.1-88.4-93.1c-48.8,0-88.4,39.6-88.4,88.4v-5.3c0-44.9-33.9-83.1-82.9-83.1c-45.8,0-82.9,37.1-82.9,82.9v139.7
						c0-40.1-32.5-72.6-72.6-72.6C98,217.6,69,253.3,69,293.2v596.2c0,169.8,136.9,309.8,306.8,309.8c166,0,266.2-57.8,357.5-159
						L980.5,772c16.6-18,16-45.9-1.4-63.2l0,0C926.6,656.5,842,655.3,787.9,706.1z"/>
					<path class="st22" d="M214.4,290.1v284.3 M380.1,155.9v418.5 M556.9,235.6v338.9 M722.7,767.5h-168
						c-60.3,0-114.3,26.8-150.8,69.1 M787.9,706.1l-65.3,61.3V240c0-45.3-33.7-87.3-82.9-87.3c-45.8,0-82.9,37.1-82.9,82.9v-74.9
						c0-47.6-35.4-93.1-88.4-93.1c-48.8,0-88.4,39.6-88.4,88.4v-5.3c0-44.9-33.9-83.1-82.9-83.1c-45.8,0-82.9,37.1-82.9,82.9v139.7
						c0-40.1-32.5-72.6-72.6-72.6C98,217.6,69,253.3,69,293.2v596.2c0,169.8,136.9,309.8,306.8,309.8c166,0,266.2-57.8,357.5-159
						L980.5,772c16.6-18,16-45.9-1.4-63.2l0,0C926.6,656.5,842,655.3,787.9,706.1z"/>
					<path class="st23" d="M214.4,290.1v284.3 M380.1,155.9v418.5 M556.9,235.6v338.9 M722.7,767.5h-168
						c-60.3,0-114.3,26.8-150.8,69.1 M787.9,706.1l-65.3,61.3V240c0-45.3-33.7-87.3-82.9-87.3c-45.8,0-82.9,37.1-82.9,82.9v-74.9
						c0-47.6-35.4-93.1-88.4-93.1c-48.8,0-88.4,39.6-88.4,88.4v-5.3c0-44.9-33.9-83.1-82.9-83.1c-45.8,0-82.9,37.1-82.9,82.9v139.7
						c0-40.1-32.5-72.6-72.6-72.6C98,217.6,69,253.3,69,293.2v596.2c0,169.8,136.9,309.8,306.8,309.8c166,0,266.2-57.8,357.5-159
						L980.5,772c16.6-18,16-45.9-1.4-63.2l0,0C926.6,656.5,842,655.3,787.9,706.1z"/>
					<path class="st13" d="M214.4,290.1v284.3 M380.1,155.9v418.5 M556.9,235.6v338.9 M722.7,767.5h-168
						c-60.3,0-114.3,26.8-150.8,69.1 M787.9,706.1l-65.3,61.3V240c0-45.3-33.7-87.3-82.9-87.3c-45.8,0-82.9,37.1-82.9,82.9v-74.9
						c0-47.6-35.4-93.1-88.4-93.1c-48.8,0-88.4,39.6-88.4,88.4v-5.3c0-44.9-33.9-83.1-82.9-83.1c-45.8,0-82.9,37.1-82.9,82.9v139.7
						c0-40.1-32.5-72.6-72.6-72.6C98,217.6,69,253.3,69,293.2v596.2c0,169.8,136.9,309.8,306.8,309.8c166,0,266.2-57.8,357.5-159
						L980.5,772c16.6-18,16-45.9-1.4-63.2l0,0C926.6,656.5,842,655.3,787.9,706.1z"/>
				</g>
			</g>
		</g>
	</g>
</g>
<g id="scissors" class="st0">
	<g class="st15">
	</g>
	<g class="st15">
		<g>
			<g>
				<g>
					<path class="st24" d="M455.1,1059.3v-42.7c0-79.8,64.7-144.5,144.5-144.5l0,0 M821.6,61.6c-44.5-6.3-85.7,24.8-92,69.3
						l-64.9,445.2l-64.6-443.9c-6.3-44.5-47.4-75.6-92-69.3c-44.5,6.3-75.6,47.4-69.3,92l47.3,336.6c-15.1-13-34.8-20.9-56.4-20.9
						c-47.8,0-86.6,38.8-86.6,86.6v78.2c0-47.8-38.8-86.6-86.6-86.6s-86.6,38.8-86.6,86.6v234.8c0,172.9,130.5,323.9,303.1,335.1
						c177.8,11.5,346.3-122.7,346.3-333.1c0-277.9,0-185,71.5-718.4C897.1,109,866.1,67.9,821.6,61.6z M256.7,548.7L256.7,548.7
						c-47.8,0-86.6,38.8-86.6,86.6V741c0,47.8,38.8,86.6,86.6,86.6l0,0c47.8,0,86.6-38.8,86.6-86.6V635.3
						C343.2,587.5,304.5,548.7,256.7,548.7z M516.4,703.1v-146c0-47.8-38.8-86.6-86.6-86.6l0,0c-47.8,0-86.6,38.8-86.6,86.6v146
						 M819.4,872L819.4,872c0-93.3-75.6-169-169-169h-263c-24.7,0-44.8,20-44.8,44.8l0,0c0,68.6,55.6,124.2,124.2,124.2h132.8"/>
				</g>
			</g>
		</g>
		<g>
			<g>
				<g>
					<g class="st3">
						<path class="st25" d="M455.1,1059.3v-42.7c0-79.8,64.7-144.5,144.5-144.5l0,0 M821.6,61.6c-44.5-6.3-85.7,24.8-92,69.3
							l-64.9,445.2l-64.6-443.9c-6.3-44.5-47.4-75.6-92-69.3c-44.5,6.3-75.6,47.4-69.3,92l47.3,336.6c-15.1-13-34.8-20.9-56.4-20.9
							c-47.8,0-86.6,38.8-86.6,86.6v78.2c0-47.8-38.8-86.6-86.6-86.6s-86.6,38.8-86.6,86.6v234.8c0,172.9,130.5,323.9,303.1,335.1
							c177.8,11.5,346.3-122.7,346.3-333.1c0-277.9,0-185,71.5-718.4C897.1,109,866.1,67.9,821.6,61.6z M256.7,548.7L256.7,548.7
							c-47.8,0-86.6,38.8-86.6,86.6V741c0,47.8,38.8,86.6,86.6,86.6l0,0c47.8,0,86.6-38.8,86.6-86.6V635.3
							C343.2,587.5,304.5,548.7,256.7,548.7z M516.4,703.1v-146c0-47.8-38.8-86.6-86.6-86.6l0,0c-47.8,0-86.6,38.8-86.6,86.6v146
							 M819.4,872L819.4,872c0-93.3-75.6-169-169-169h-263c-24.7,0-44.8,20-44.8,44.8l0,0c0,68.6,55.6,124.2,124.2,124.2h132.8"/>
					</g>
					<g class="st5">
						<path class="st26" d="M455.1,1059.3v-42.7c0-79.8,64.7-144.5,144.5-144.5l0,0 M821.6,61.6c-44.5-6.3-85.7,24.8-92,69.3
							l-64.9,445.2l-64.6-443.9c-6.3-44.5-47.4-75.6-92-69.3c-44.5,6.3-75.6,47.4-69.3,92l47.3,336.6c-15.1-13-34.8-20.9-56.4-20.9
							c-47.8,0-86.6,38.8-86.6,86.6v78.2c0-47.8-38.8-86.6-86.6-86.6s-86.6,38.8-86.6,86.6v234.8c0,172.9,130.5,323.9,303.1,335.1
							c177.8,11.5,346.3-122.7,346.3-333.1c0-277.9,0-185,71.5-718.4C897.1,109,866.1,67.9,821.6,61.6z M256.7,548.7L256.7,548.7
							c-47.8,0-86.6,38.8-86.6,86.6V741c0,47.8,38.8,86.6,86.6,86.6l0,0c47.8,0,86.6-38.8,86.6-86.6V635.3
							C343.2,587.5,304.5,548.7,256.7,548.7z M516.4,703.1v-146c0-47.8-38.8-86.6-86.6-86.6l0,0c-47.8,0-86.6,38.8-86.6,86.6v146
							 M819.4,872L819.4,872c0-93.3-75.6-169-169-169h-263c-24.7,0-44.8,20-44.8,44.8l0,0c0,68.6,55.6,124.2,124.2,124.2h132.8"/>
					</g>
					<g class="st7">
						<path class="st27" d="M455.1,1059.3v-42.7c0-79.8,64.7-144.5,144.5-144.5l0,0 M821.6,61.6c-44.5-6.3-85.7,24.8-92,69.3
							l-64.9,445.2l-64.6-443.9c-6.3-44.5-47.4-75.6-92-69.3c-44.5,6.3-75.6,47.4-69.3,92l47.3,336.6c-15.1-13-34.8-20.9-56.4-20.9
							c-47.8,0-86.6,38.8-86.6,86.6v78.2c0-47.8-38.8-86.6-86.6-86.6s-86.6,38.8-86.6,86.6v234.8c0,172.9,130.5,323.9,303.1,335.1
							c177.8,11.5,346.3-122.7,346.3-333.1c0-277.9,0-185,71.5-718.4C897.1,109,866.1,67.9,821.6,61.6z M256.7,548.7L256.7,548.7
							c-47.8,0-86.6,38.8-86.6,86.6V741c0,47.8,38.8,86.6,86.6,86.6l0,0c47.8,0,86.6-38.8,86.6-86.6V635.3
							C343.2,587.5,304.5,548.7,256.7,548.7z M516.4,703.1v-146c0-47.8-38.8-86.6-86.6-86.6l0,0c-47.8,0-86.6,38.8-86.6,86.6v146
							 M819.4,872L819.4,872c0-93.3-75.6-169-169-169h-263c-24.7,0-44.8,20-44.8,44.8l0,0c0,68.6,55.6,124.2,124.2,124.2h132.8"/>
					</g>
					<path class="st28" d="M455.1,1059.3v-42.7c0-79.8,64.7-144.5,144.5-144.5l0,0 M821.6,61.6c-44.5-6.3-85.7,24.8-92,69.3
						l-64.9,445.2l-64.6-443.9c-6.3-44.5-47.4-75.6-92-69.3c-44.5,6.3-75.6,47.4-69.3,92l47.3,336.6c-15.1-13-34.8-20.9-56.4-20.9
						c-47.8,0-86.6,38.8-86.6,86.6v78.2c0-47.8-38.8-86.6-86.6-86.6s-86.6,38.8-86.6,86.6v234.8c0,172.9,130.5,323.9,303.1,335.1
						c177.8,11.5,346.3-122.7,346.3-333.1c0-277.9,0-185,71.5-718.4 M256.7,548.7L256.7,548.7c-47.8,0-86.6,38.8-86.6,86.6V741
						c0,47.8,38.8,86.6,86.6,86.6l0,0c47.8,0,86.6-38.8,86.6-86.6V635.3C343.2,587.5,304.5,548.7,256.7,548.7z M516.4,703.1v-146
						c0-47.8-38.8-86.6-86.6-86.6l0,0c-47.8,0-86.6,38.8-86.6,86.6v146 M819.4,872L819.4,872c0-93.3-75.6-169-169-169h-263
						c-24.7,0-44.8,20-44.8,44.8l0,0c0,68.6,55.6,124.2,124.2,124.2h132.8"/>
					<path class="st29" d="M455.1,1059.3v-42.7c0-79.8,64.7-144.5,144.5-144.5l0,0 M256.7,548.7L256.7,548.7
						c-47.8,0-86.6,38.8-86.6,86.6V741c0,47.8,38.8,86.6,86.6,86.6l0,0c47.8,0,86.6-38.8,86.6-86.6V635.3
						C343.2,587.5,304.5,548.7,256.7,548.7z M516.4,703.1v-146c0-47.8-38.8-86.6-86.6-86.6l0,0c-47.8,0-86.6,38.8-86.6,86.6v146
						 M819.4,872L819.4,872c0-93.3-75.6-169-169-169h-263c-24.7,0-44.8,20-44.8,44.8l0,0c0,68.6,55.6,124.2,124.2,124.2h132.8"/>
					<path class="st30" d="M455.1,1059.3v-42.7c0-79.8,64.7-144.5,144.5-144.5l0,0 M256.7,548.7L256.7,548.7
						c-47.8,0-86.6,38.8-86.6,86.6V741c0,47.8,38.8,86.6,86.6,86.6l0,0c47.8,0,86.6-38.8,86.6-86.6V635.3
						C343.2,587.5,304.5,548.7,256.7,548.7z M516.4,703.1v-146c0-47.8-38.8-86.6-86.6-86.6l0,0c-47.8,0-86.6,38.8-86.6,86.6v146
						 M819.4,872L819.4,872c0-93.3-75.6-169-169-169h-263c-24.7,0-44.8,20-44.8,44.8l0,0c0,68.6,55.6,124.2,124.2,124.2h132.8"/>
					<path class="st31" d="M455.1,1059.3v-42.7c0-79.8,64.7-144.5,144.5-144.5l0,0 M256.7,548.7L256.7,548.7
						c-47.8,0-86.6,38.8-86.6,86.6V741c0,47.8,38.8,86.6,86.6,86.6l0,0c47.8,0,86.6-38.8,86.6-86.6V635.3
						C343.2,587.5,304.5,548.7,256.7,548.7z M516.4,703.1v-146c0-47.8-38.8-86.6-86.6-86.6l0,0c-47.8,0-86.6,38.8-86.6,86.6v146
						 M819.4,872L819.4,872c0-93.3-75.6-169-169-169h-263c-24.7,0-44.8,20-44.8,44.8l0,0c0,68.6,55.6,124.2,124.2,124.2h132.8"/>
					<path class="st29" d="M455.1,1059.3v-42.7c0-79.8,64.7-144.5,144.5-144.5l0,0 M256.7,548.7L256.7,548.7
						c-47.8,0-86.6,38.8-86.6,86.6V741c0,47.8,38.8,86.6,86.6,86.6l0,0c47.8,0,86.6-38.8,86.6-86.6V635.3
						C343.2,587.5,304.5,548.7,256.7,548.7z M516.4,703.1v-146c0-47.8-38.8-86.6-86.6-86.6l0,0c-47.8,0-86.6,38.8-86.6,86.6v146
						 M819.4,872L819.4,872c0-93.3-75.6-169-169-169h-263c-24.7,0-44.8,20-44.8,44.8l0,0c0,68.6,55.6,124.2,124.2,124.2h132.8"/>
				</g>
			</g>
		</g>
	</g>
</g>
</svg>
